<mxfile host="app.diagrams.net" modified="2023-10-13T10:37:06.818Z" agent="Mozilla/5.0 (Windows NT 10.0; Win64; x64) AppleWebKit/537.36 (KHTML, like Gecko) Chrome/117.0.0.0 Safari/537.36" etag="e0Xp7gs3VBrGNm5simBX" version="22.0.4" type="device">
  <diagram id="R2lEEEUBdFMjLlhIrx00" name="Page-1">
    <mxGraphModel dx="1433" dy="602" grid="1" gridSize="10" guides="1" tooltips="1" connect="1" arrows="1" fold="1" page="1" pageScale="1" pageWidth="850" pageHeight="1100" math="0" shadow="0" extFonts="Permanent Marker^https://fonts.googleapis.com/css?family=Permanent+Marker">
      <root>
        <mxCell id="0" />
        <mxCell id="1" parent="0" />
        <mxCell id="hczOaKAY6GPg48E_YKkj-1" value="Buch" style="whiteSpace=wrap;html=1;align=center;fontSize=16;" parent="1" vertex="1">
          <mxGeometry x="370" y="50" width="100" height="40" as="geometry" />
        </mxCell>
        <mxCell id="hczOaKAY6GPg48E_YKkj-2" value="Leser" style="whiteSpace=wrap;html=1;align=center;fontSize=16;" parent="1" vertex="1">
          <mxGeometry x="515" y="220.66" width="100" height="40" as="geometry" />
        </mxCell>
        <mxCell id="hczOaKAY6GPg48E_YKkj-3" value="leiht aus" style="shape=rhombus;perimeter=rhombusPerimeter;whiteSpace=wrap;html=1;align=center;fontSize=16;" parent="1" vertex="1">
          <mxGeometry x="630" y="130" width="120" height="60" as="geometry" />
        </mxCell>
        <mxCell id="hczOaKAY6GPg48E_YKkj-4" value="hat" style="shape=rhombus;perimeter=rhombusPerimeter;whiteSpace=wrap;html=1;align=center;fontSize=16;" parent="1" vertex="1">
          <mxGeometry x="220" y="40" width="120" height="60" as="geometry" />
        </mxCell>
        <mxCell id="hczOaKAY6GPg48E_YKkj-5" value="Autor" style="whiteSpace=wrap;html=1;align=center;fontSize=16;" parent="1" vertex="1">
          <mxGeometry x="80" y="51.64" width="100" height="40" as="geometry" />
        </mxCell>
        <mxCell id="hczOaKAY6GPg48E_YKkj-6" value="Nachname" style="ellipse;whiteSpace=wrap;html=1;align=center;fontSize=16;" parent="1" vertex="1">
          <mxGeometry x="130" y="99.99999999999999" width="100" height="40" as="geometry" />
        </mxCell>
        <mxCell id="hczOaKAY6GPg48E_YKkj-10" value="Bestellt vor" style="shape=rhombus;perimeter=rhombusPerimeter;whiteSpace=wrap;html=1;align=center;fontSize=16;" parent="1" vertex="1">
          <mxGeometry x="360" y="130" width="120" height="60" as="geometry" />
        </mxCell>
        <mxCell id="hczOaKAY6GPg48E_YKkj-11" value="" style="endArrow=none;html=1;rounded=0;fontSize=12;startSize=8;endSize=8;curved=1;" parent="1" source="u7shPoIlP6sAaxsOA2vG-3" target="hczOaKAY6GPg48E_YKkj-3" edge="1">
          <mxGeometry relative="1" as="geometry">
            <mxPoint x="290" y="283.3333333333333" as="sourcePoint" />
            <mxPoint x="440" y="310" as="targetPoint" />
          </mxGeometry>
        </mxCell>
        <mxCell id="hczOaKAY6GPg48E_YKkj-13" value="N" style="edgeLabel;html=1;align=center;verticalAlign=middle;resizable=0;points=[];fontSize=16;" parent="hczOaKAY6GPg48E_YKkj-11" vertex="1" connectable="0">
          <mxGeometry x="0.5171" y="2" relative="1" as="geometry">
            <mxPoint x="-2" as="offset" />
          </mxGeometry>
        </mxCell>
        <mxCell id="hczOaKAY6GPg48E_YKkj-12" value="" style="endArrow=none;html=1;rounded=0;fontSize=12;startSize=8;endSize=8;curved=1;" parent="1" source="hczOaKAY6GPg48E_YKkj-1" target="hczOaKAY6GPg48E_YKkj-10" edge="1">
          <mxGeometry relative="1" as="geometry">
            <mxPoint x="290" y="316.66666666666674" as="sourcePoint" />
            <mxPoint x="340" y="280" as="targetPoint" />
          </mxGeometry>
        </mxCell>
        <mxCell id="hczOaKAY6GPg48E_YKkj-14" value="N" style="edgeLabel;html=1;align=center;verticalAlign=middle;resizable=0;points=[];fontSize=16;" parent="hczOaKAY6GPg48E_YKkj-12" vertex="1" connectable="0">
          <mxGeometry x="0.2639" y="1" relative="1" as="geometry">
            <mxPoint x="-16" y="-4" as="offset" />
          </mxGeometry>
        </mxCell>
        <mxCell id="hczOaKAY6GPg48E_YKkj-15" value="" style="endArrow=none;html=1;rounded=0;fontSize=12;startSize=8;endSize=8;curved=1;" parent="1" source="hczOaKAY6GPg48E_YKkj-3" target="hczOaKAY6GPg48E_YKkj-2" edge="1">
          <mxGeometry relative="1" as="geometry">
            <mxPoint x="250" y="306" as="sourcePoint" />
            <mxPoint x="340" y="280" as="targetPoint" />
          </mxGeometry>
        </mxCell>
        <mxCell id="hczOaKAY6GPg48E_YKkj-17" value="M" style="edgeLabel;html=1;align=center;verticalAlign=middle;resizable=0;points=[];fontSize=16;" parent="hczOaKAY6GPg48E_YKkj-15" vertex="1" connectable="0">
          <mxGeometry x="0.4872" relative="1" as="geometry">
            <mxPoint as="offset" />
          </mxGeometry>
        </mxCell>
        <mxCell id="hczOaKAY6GPg48E_YKkj-18" value="" style="endArrow=none;html=1;rounded=0;fontSize=12;startSize=8;endSize=8;curved=1;" parent="1" source="hczOaKAY6GPg48E_YKkj-10" target="hczOaKAY6GPg48E_YKkj-2" edge="1">
          <mxGeometry relative="1" as="geometry">
            <mxPoint x="460" y="280" as="sourcePoint" />
            <mxPoint x="520" y="296" as="targetPoint" />
          </mxGeometry>
        </mxCell>
        <mxCell id="hczOaKAY6GPg48E_YKkj-19" value="M" style="edgeLabel;html=1;align=center;verticalAlign=middle;resizable=0;points=[];fontSize=16;" parent="hczOaKAY6GPg48E_YKkj-18" vertex="1" connectable="0">
          <mxGeometry x="0.4872" relative="1" as="geometry">
            <mxPoint as="offset" />
          </mxGeometry>
        </mxCell>
        <mxCell id="hczOaKAY6GPg48E_YKkj-20" value="&lt;u&gt;ISBN&lt;/u&gt;" style="ellipse;whiteSpace=wrap;html=1;align=center;fontSize=16;" parent="1" vertex="1">
          <mxGeometry x="420" width="100" height="40" as="geometry" />
        </mxCell>
        <mxCell id="hczOaKAY6GPg48E_YKkj-22" value="" style="endArrow=none;html=1;rounded=0;fontSize=12;startSize=8;endSize=8;curved=1;" parent="1" source="hczOaKAY6GPg48E_YKkj-1" target="hczOaKAY6GPg48E_YKkj-4" edge="1">
          <mxGeometry relative="1" as="geometry">
            <mxPoint x="430" y="140" as="sourcePoint" />
            <mxPoint x="590" y="140" as="targetPoint" />
          </mxGeometry>
        </mxCell>
        <mxCell id="hczOaKAY6GPg48E_YKkj-23" value="N" style="edgeLabel;html=1;align=center;verticalAlign=middle;resizable=0;points=[];fontSize=16;" parent="hczOaKAY6GPg48E_YKkj-22" vertex="1" connectable="0">
          <mxGeometry x="-0.4" y="-2" relative="1" as="geometry">
            <mxPoint as="offset" />
          </mxGeometry>
        </mxCell>
        <mxCell id="hczOaKAY6GPg48E_YKkj-24" value="" style="endArrow=none;html=1;rounded=0;fontSize=12;startSize=8;endSize=8;curved=1;" parent="1" source="hczOaKAY6GPg48E_YKkj-4" target="hczOaKAY6GPg48E_YKkj-5" edge="1">
          <mxGeometry relative="1" as="geometry">
            <mxPoint x="230" y="70" as="sourcePoint" />
            <mxPoint x="390" y="70" as="targetPoint" />
          </mxGeometry>
        </mxCell>
        <mxCell id="hczOaKAY6GPg48E_YKkj-25" value="M" style="edgeLabel;html=1;align=center;verticalAlign=middle;resizable=0;points=[];fontSize=16;" parent="hczOaKAY6GPg48E_YKkj-24" vertex="1" connectable="0">
          <mxGeometry x="0.1" relative="1" as="geometry">
            <mxPoint as="offset" />
          </mxGeometry>
        </mxCell>
        <mxCell id="hczOaKAY6GPg48E_YKkj-26" value="Vorname" style="ellipse;whiteSpace=wrap;html=1;align=center;fontSize=16;" parent="1" vertex="1">
          <mxGeometry x="30" y="99.99999999999999" width="100" height="40" as="geometry" />
        </mxCell>
        <mxCell id="hczOaKAY6GPg48E_YKkj-27" value="&lt;u&gt;AutorID&lt;/u&gt;" style="ellipse;whiteSpace=wrap;html=1;align=center;fontSize=16;" parent="1" vertex="1">
          <mxGeometry x="80" width="100" height="40" as="geometry" />
        </mxCell>
        <mxCell id="hczOaKAY6GPg48E_YKkj-28" value="Vorname" style="ellipse;whiteSpace=wrap;html=1;align=center;fontSize=16;" parent="1" vertex="1">
          <mxGeometry x="375" y="215.66" width="100" height="40" as="geometry" />
        </mxCell>
        <mxCell id="hczOaKAY6GPg48E_YKkj-29" value="Nachname" style="ellipse;whiteSpace=wrap;html=1;align=center;fontSize=16;" parent="1" vertex="1">
          <mxGeometry x="375" y="255.66" width="100" height="40" as="geometry" />
        </mxCell>
        <mxCell id="hczOaKAY6GPg48E_YKkj-30" value="StraÃŸe" style="ellipse;whiteSpace=wrap;html=1;align=center;fontSize=16;" parent="1" vertex="1">
          <mxGeometry x="645" y="215.66" width="100" height="40" as="geometry" />
        </mxCell>
        <mxCell id="hczOaKAY6GPg48E_YKkj-31" value="Hausnummer" style="ellipse;whiteSpace=wrap;html=1;align=center;fontSize=16;" parent="1" vertex="1">
          <mxGeometry x="645" y="255.66" width="100" height="40" as="geometry" />
        </mxCell>
        <mxCell id="hczOaKAY6GPg48E_YKkj-32" value="Ort" style="ellipse;whiteSpace=wrap;html=1;align=center;fontSize=16;" parent="1" vertex="1">
          <mxGeometry x="615" y="295.65999999999997" width="100" height="40" as="geometry" />
        </mxCell>
        <mxCell id="hczOaKAY6GPg48E_YKkj-33" value="Plz" style="ellipse;whiteSpace=wrap;html=1;align=center;fontSize=16;" parent="1" vertex="1">
          <mxGeometry x="515" y="295.65999999999997" width="100" height="40" as="geometry" />
        </mxCell>
        <mxCell id="hczOaKAY6GPg48E_YKkj-34" value="&lt;u&gt;LeserID&lt;/u&gt;" style="ellipse;whiteSpace=wrap;html=1;align=center;fontSize=16;" parent="1" vertex="1">
          <mxGeometry x="415" y="295.65999999999997" width="100" height="40" as="geometry" />
        </mxCell>
        <mxCell id="hczOaKAY6GPg48E_YKkj-37" value="Ausleih&lt;br&gt;datum" style="ellipse;whiteSpace=wrap;html=1;align=center;fontSize=16;" parent="1" vertex="1">
          <mxGeometry x="750" y="160" width="100" height="40" as="geometry" />
        </mxCell>
        <mxCell id="hczOaKAY6GPg48E_YKkj-38" value="RÃ¼ckgabe&lt;br&gt;datum" style="ellipse;whiteSpace=wrap;html=1;align=center;fontSize=16;" parent="1" vertex="1">
          <mxGeometry x="750" y="120" width="100" height="40" as="geometry" />
        </mxCell>
        <mxCell id="hczOaKAY6GPg48E_YKkj-39" value="" style="endArrow=none;html=1;rounded=0;fontSize=12;startSize=8;endSize=8;curved=1;" parent="1" source="hczOaKAY6GPg48E_YKkj-37" target="hczOaKAY6GPg48E_YKkj-3" edge="1">
          <mxGeometry relative="1" as="geometry">
            <mxPoint x="440" y="380" as="sourcePoint" />
            <mxPoint x="600" y="380" as="targetPoint" />
          </mxGeometry>
        </mxCell>
        <mxCell id="hczOaKAY6GPg48E_YKkj-40" value="" style="endArrow=none;html=1;rounded=0;fontSize=12;startSize=8;endSize=8;curved=1;" parent="1" source="hczOaKAY6GPg48E_YKkj-38" target="hczOaKAY6GPg48E_YKkj-3" edge="1">
          <mxGeometry relative="1" as="geometry">
            <mxPoint x="474" y="229" as="sourcePoint" />
            <mxPoint x="494" y="258" as="targetPoint" />
          </mxGeometry>
        </mxCell>
        <mxCell id="hczOaKAY6GPg48E_YKkj-41" value="" style="endArrow=none;html=1;rounded=0;fontSize=12;startSize=8;endSize=8;curved=1;" parent="1" source="hczOaKAY6GPg48E_YKkj-20" target="hczOaKAY6GPg48E_YKkj-1" edge="1">
          <mxGeometry relative="1" as="geometry">
            <mxPoint x="544" y="-1" as="sourcePoint" />
            <mxPoint x="564" y="28" as="targetPoint" />
          </mxGeometry>
        </mxCell>
        <mxCell id="hczOaKAY6GPg48E_YKkj-44" value="" style="endArrow=none;html=1;rounded=0;fontSize=12;startSize=8;endSize=8;curved=1;" parent="1" source="hczOaKAY6GPg48E_YKkj-2" target="hczOaKAY6GPg48E_YKkj-34" edge="1">
          <mxGeometry relative="1" as="geometry">
            <mxPoint x="419" y="199.66" as="sourcePoint" />
            <mxPoint x="515" y="190.66" as="targetPoint" />
          </mxGeometry>
        </mxCell>
        <mxCell id="hczOaKAY6GPg48E_YKkj-45" value="" style="endArrow=none;html=1;rounded=0;fontSize=12;startSize=8;endSize=8;curved=1;" parent="1" source="hczOaKAY6GPg48E_YKkj-2" target="hczOaKAY6GPg48E_YKkj-33" edge="1">
          <mxGeometry relative="1" as="geometry">
            <mxPoint x="551" y="270.65999999999997" as="sourcePoint" />
            <mxPoint x="507" y="307.65999999999997" as="targetPoint" />
          </mxGeometry>
        </mxCell>
        <mxCell id="hczOaKAY6GPg48E_YKkj-46" value="" style="endArrow=none;html=1;rounded=0;fontSize=12;startSize=8;endSize=8;curved=1;" parent="1" source="hczOaKAY6GPg48E_YKkj-2" target="hczOaKAY6GPg48E_YKkj-32" edge="1">
          <mxGeometry relative="1" as="geometry">
            <mxPoint x="561" y="280.65999999999997" as="sourcePoint" />
            <mxPoint x="517" y="317.65999999999997" as="targetPoint" />
          </mxGeometry>
        </mxCell>
        <mxCell id="hczOaKAY6GPg48E_YKkj-47" value="" style="endArrow=none;html=1;rounded=0;fontSize=12;startSize=8;endSize=8;curved=1;" parent="1" source="hczOaKAY6GPg48E_YKkj-2" target="hczOaKAY6GPg48E_YKkj-31" edge="1">
          <mxGeometry relative="1" as="geometry">
            <mxPoint x="571" y="290.65999999999997" as="sourcePoint" />
            <mxPoint x="527" y="327.65999999999997" as="targetPoint" />
          </mxGeometry>
        </mxCell>
        <mxCell id="hczOaKAY6GPg48E_YKkj-48" value="" style="endArrow=none;html=1;rounded=0;fontSize=12;startSize=8;endSize=8;curved=1;" parent="1" source="hczOaKAY6GPg48E_YKkj-2" target="hczOaKAY6GPg48E_YKkj-30" edge="1">
          <mxGeometry relative="1" as="geometry">
            <mxPoint x="581" y="300.65999999999997" as="sourcePoint" />
            <mxPoint x="537" y="337.65999999999997" as="targetPoint" />
          </mxGeometry>
        </mxCell>
        <mxCell id="hczOaKAY6GPg48E_YKkj-49" value="" style="endArrow=none;html=1;rounded=0;fontSize=12;startSize=8;endSize=8;curved=1;" parent="1" source="hczOaKAY6GPg48E_YKkj-2" target="hczOaKAY6GPg48E_YKkj-29" edge="1">
          <mxGeometry relative="1" as="geometry">
            <mxPoint x="591" y="310.65999999999997" as="sourcePoint" />
            <mxPoint x="547" y="347.65999999999997" as="targetPoint" />
          </mxGeometry>
        </mxCell>
        <mxCell id="hczOaKAY6GPg48E_YKkj-50" value="" style="endArrow=none;html=1;rounded=0;fontSize=12;startSize=8;endSize=8;curved=1;" parent="1" source="hczOaKAY6GPg48E_YKkj-2" target="hczOaKAY6GPg48E_YKkj-28" edge="1">
          <mxGeometry relative="1" as="geometry">
            <mxPoint x="601" y="320.65999999999997" as="sourcePoint" />
            <mxPoint x="557" y="357.65999999999997" as="targetPoint" />
          </mxGeometry>
        </mxCell>
        <mxCell id="hczOaKAY6GPg48E_YKkj-51" value="" style="endArrow=none;html=1;rounded=0;fontSize=12;startSize=8;endSize=8;curved=1;" parent="1" source="hczOaKAY6GPg48E_YKkj-6" target="hczOaKAY6GPg48E_YKkj-5" edge="1">
          <mxGeometry relative="1" as="geometry">
            <mxPoint x="476" y="21.64" as="sourcePoint" />
            <mxPoint x="432" y="58.64" as="targetPoint" />
          </mxGeometry>
        </mxCell>
        <mxCell id="hczOaKAY6GPg48E_YKkj-52" value="" style="endArrow=none;html=1;rounded=0;fontSize=12;startSize=8;endSize=8;curved=1;" parent="1" source="hczOaKAY6GPg48E_YKkj-26" target="hczOaKAY6GPg48E_YKkj-5" edge="1">
          <mxGeometry relative="1" as="geometry">
            <mxPoint x="130" y="121.63999999999999" as="sourcePoint" />
            <mxPoint x="442" y="68.64" as="targetPoint" />
          </mxGeometry>
        </mxCell>
        <mxCell id="hczOaKAY6GPg48E_YKkj-53" value="" style="endArrow=none;html=1;rounded=0;fontSize=12;startSize=8;endSize=8;curved=1;" parent="1" source="hczOaKAY6GPg48E_YKkj-27" target="hczOaKAY6GPg48E_YKkj-5" edge="1">
          <mxGeometry relative="1" as="geometry">
            <mxPoint x="496" y="41.64" as="sourcePoint" />
            <mxPoint x="452" y="78.63999999999999" as="targetPoint" />
          </mxGeometry>
        </mxCell>
        <mxCell id="u7shPoIlP6sAaxsOA2vG-1" value="Titel" style="ellipse;whiteSpace=wrap;html=1;align=center;fontSize=16;" parent="1" vertex="1">
          <mxGeometry x="320" width="100" height="40" as="geometry" />
        </mxCell>
        <mxCell id="u7shPoIlP6sAaxsOA2vG-2" value="" style="endArrow=none;html=1;rounded=0;fontSize=12;startSize=8;endSize=8;curved=1;" parent="1" source="u7shPoIlP6sAaxsOA2vG-1" target="hczOaKAY6GPg48E_YKkj-1" edge="1">
          <mxGeometry relative="1" as="geometry">
            <mxPoint x="360" y="220" as="sourcePoint" />
            <mxPoint x="380" y="220" as="targetPoint" />
          </mxGeometry>
        </mxCell>
        <mxCell id="u7shPoIlP6sAaxsOA2vG-3" value="Exemplar" style="whiteSpace=wrap;html=1;align=center;fontSize=16;" parent="1" vertex="1">
          <mxGeometry x="640" y="50" width="100" height="40" as="geometry" />
        </mxCell>
        <mxCell id="u7shPoIlP6sAaxsOA2vG-4" value="hat" style="shape=rhombus;perimeter=rhombusPerimeter;whiteSpace=wrap;html=1;align=center;fontSize=16;" parent="1" vertex="1">
          <mxGeometry x="500" y="41.64" width="120" height="60" as="geometry" />
        </mxCell>
        <mxCell id="u7shPoIlP6sAaxsOA2vG-5" value="" style="endArrow=none;html=1;rounded=0;" parent="1" source="hczOaKAY6GPg48E_YKkj-1" target="u7shPoIlP6sAaxsOA2vG-4" edge="1">
          <mxGeometry width="50" height="50" relative="1" as="geometry">
            <mxPoint x="520" y="190" as="sourcePoint" />
            <mxPoint x="570" y="140" as="targetPoint" />
          </mxGeometry>
        </mxCell>
        <mxCell id="u7shPoIlP6sAaxsOA2vG-6" value="1" style="edgeLabel;html=1;align=center;verticalAlign=middle;resizable=0;points=[];" parent="u7shPoIlP6sAaxsOA2vG-5" vertex="1" connectable="0">
          <mxGeometry x="-0.39" relative="1" as="geometry">
            <mxPoint as="offset" />
          </mxGeometry>
        </mxCell>
        <mxCell id="u7shPoIlP6sAaxsOA2vG-7" value="" style="endArrow=none;html=1;rounded=0;" parent="1" source="u7shPoIlP6sAaxsOA2vG-3" target="u7shPoIlP6sAaxsOA2vG-4" edge="1">
          <mxGeometry width="50" height="50" relative="1" as="geometry">
            <mxPoint x="520" y="190" as="sourcePoint" />
            <mxPoint x="570" y="140" as="targetPoint" />
          </mxGeometry>
        </mxCell>
        <mxCell id="u7shPoIlP6sAaxsOA2vG-8" value="N" style="edgeLabel;html=1;align=center;verticalAlign=middle;resizable=0;points=[];" parent="u7shPoIlP6sAaxsOA2vG-7" vertex="1" connectable="0">
          <mxGeometry x="-0.1606" y="1" relative="1" as="geometry">
            <mxPoint as="offset" />
          </mxGeometry>
        </mxCell>
        <mxCell id="LjX3yTBbRf_IUqUX3jE2-1" value="Autor" style="shape=table;startSize=30;container=1;collapsible=1;childLayout=tableLayout;fixedRows=1;rowLines=0;fontStyle=1;align=center;resizeLast=1;html=1;" parent="1" vertex="1">
          <mxGeometry x="60" y="200" width="180" height="120" as="geometry" />
        </mxCell>
        <mxCell id="LjX3yTBbRf_IUqUX3jE2-2" value="" style="shape=tableRow;horizontal=0;startSize=0;swimlaneHead=0;swimlaneBody=0;fillColor=none;collapsible=0;dropTarget=0;points=[[0,0.5],[1,0.5]];portConstraint=eastwest;top=0;left=0;right=0;bottom=1;" parent="LjX3yTBbRf_IUqUX3jE2-1" vertex="1">
          <mxGeometry y="30" width="180" height="30" as="geometry" />
        </mxCell>
        <mxCell id="LjX3yTBbRf_IUqUX3jE2-3" value="PK" style="shape=partialRectangle;connectable=0;fillColor=none;top=0;left=0;bottom=0;right=0;fontStyle=1;overflow=hidden;whiteSpace=wrap;html=1;" parent="LjX3yTBbRf_IUqUX3jE2-2" vertex="1">
          <mxGeometry width="30" height="30" as="geometry">
            <mxRectangle width="30" height="30" as="alternateBounds" />
          </mxGeometry>
        </mxCell>
        <mxCell id="LjX3yTBbRf_IUqUX3jE2-4" value="AutorID" style="shape=partialRectangle;connectable=0;fillColor=none;top=0;left=0;bottom=0;right=0;align=left;spacingLeft=6;fontStyle=5;overflow=hidden;whiteSpace=wrap;html=1;" parent="LjX3yTBbRf_IUqUX3jE2-2" vertex="1">
          <mxGeometry x="30" width="150" height="30" as="geometry">
            <mxRectangle width="150" height="30" as="alternateBounds" />
          </mxGeometry>
        </mxCell>
        <mxCell id="LjX3yTBbRf_IUqUX3jE2-5" value="" style="shape=tableRow;horizontal=0;startSize=0;swimlaneHead=0;swimlaneBody=0;fillColor=none;collapsible=0;dropTarget=0;points=[[0,0.5],[1,0.5]];portConstraint=eastwest;top=0;left=0;right=0;bottom=0;" parent="LjX3yTBbRf_IUqUX3jE2-1" vertex="1">
          <mxGeometry y="60" width="180" height="30" as="geometry" />
        </mxCell>
        <mxCell id="LjX3yTBbRf_IUqUX3jE2-6" value="" style="shape=partialRectangle;connectable=0;fillColor=none;top=0;left=0;bottom=0;right=0;editable=1;overflow=hidden;whiteSpace=wrap;html=1;" parent="LjX3yTBbRf_IUqUX3jE2-5" vertex="1">
          <mxGeometry width="30" height="30" as="geometry">
            <mxRectangle width="30" height="30" as="alternateBounds" />
          </mxGeometry>
        </mxCell>
        <mxCell id="LjX3yTBbRf_IUqUX3jE2-7" value="Vorname" style="shape=partialRectangle;connectable=0;fillColor=none;top=0;left=0;bottom=0;right=0;align=left;spacingLeft=6;overflow=hidden;whiteSpace=wrap;html=1;" parent="LjX3yTBbRf_IUqUX3jE2-5" vertex="1">
          <mxGeometry x="30" width="150" height="30" as="geometry">
            <mxRectangle width="150" height="30" as="alternateBounds" />
          </mxGeometry>
        </mxCell>
        <mxCell id="LjX3yTBbRf_IUqUX3jE2-8" value="" style="shape=tableRow;horizontal=0;startSize=0;swimlaneHead=0;swimlaneBody=0;fillColor=none;collapsible=0;dropTarget=0;points=[[0,0.5],[1,0.5]];portConstraint=eastwest;top=0;left=0;right=0;bottom=0;" parent="LjX3yTBbRf_IUqUX3jE2-1" vertex="1">
          <mxGeometry y="90" width="180" height="30" as="geometry" />
        </mxCell>
        <mxCell id="LjX3yTBbRf_IUqUX3jE2-9" value="" style="shape=partialRectangle;connectable=0;fillColor=none;top=0;left=0;bottom=0;right=0;editable=1;overflow=hidden;whiteSpace=wrap;html=1;" parent="LjX3yTBbRf_IUqUX3jE2-8" vertex="1">
          <mxGeometry width="30" height="30" as="geometry">
            <mxRectangle width="30" height="30" as="alternateBounds" />
          </mxGeometry>
        </mxCell>
        <mxCell id="LjX3yTBbRf_IUqUX3jE2-10" value="Nachname" style="shape=partialRectangle;connectable=0;fillColor=none;top=0;left=0;bottom=0;right=0;align=left;spacingLeft=6;overflow=hidden;whiteSpace=wrap;html=1;" parent="LjX3yTBbRf_IUqUX3jE2-8" vertex="1">
          <mxGeometry x="30" width="150" height="30" as="geometry">
            <mxRectangle width="150" height="30" as="alternateBounds" />
          </mxGeometry>
        </mxCell>
        <mxCell id="LjX3yTBbRf_IUqUX3jE2-15" value="Buch" style="shape=table;startSize=30;container=1;collapsible=1;childLayout=tableLayout;fixedRows=1;rowLines=0;fontStyle=1;align=center;resizeLast=1;html=1;" parent="1" vertex="1">
          <mxGeometry x="60" y="360" width="180" height="90" as="geometry" />
        </mxCell>
        <mxCell id="LjX3yTBbRf_IUqUX3jE2-16" value="" style="shape=tableRow;horizontal=0;startSize=0;swimlaneHead=0;swimlaneBody=0;fillColor=none;collapsible=0;dropTarget=0;points=[[0,0.5],[1,0.5]];portConstraint=eastwest;top=0;left=0;right=0;bottom=1;" parent="LjX3yTBbRf_IUqUX3jE2-15" vertex="1">
          <mxGeometry y="30" width="180" height="30" as="geometry" />
        </mxCell>
        <mxCell id="LjX3yTBbRf_IUqUX3jE2-17" value="PK" style="shape=partialRectangle;connectable=0;fillColor=none;top=0;left=0;bottom=0;right=0;fontStyle=1;overflow=hidden;whiteSpace=wrap;html=1;" parent="LjX3yTBbRf_IUqUX3jE2-16" vertex="1">
          <mxGeometry width="30" height="30" as="geometry">
            <mxRectangle width="30" height="30" as="alternateBounds" />
          </mxGeometry>
        </mxCell>
        <mxCell id="LjX3yTBbRf_IUqUX3jE2-18" value="ISBN" style="shape=partialRectangle;connectable=0;fillColor=none;top=0;left=0;bottom=0;right=0;align=left;spacingLeft=6;fontStyle=5;overflow=hidden;whiteSpace=wrap;html=1;" parent="LjX3yTBbRf_IUqUX3jE2-16" vertex="1">
          <mxGeometry x="30" width="150" height="30" as="geometry">
            <mxRectangle width="150" height="30" as="alternateBounds" />
          </mxGeometry>
        </mxCell>
        <mxCell id="LjX3yTBbRf_IUqUX3jE2-19" value="" style="shape=tableRow;horizontal=0;startSize=0;swimlaneHead=0;swimlaneBody=0;fillColor=none;collapsible=0;dropTarget=0;points=[[0,0.5],[1,0.5]];portConstraint=eastwest;top=0;left=0;right=0;bottom=0;" parent="LjX3yTBbRf_IUqUX3jE2-15" vertex="1">
          <mxGeometry y="60" width="180" height="30" as="geometry" />
        </mxCell>
        <mxCell id="LjX3yTBbRf_IUqUX3jE2-20" value="" style="shape=partialRectangle;connectable=0;fillColor=none;top=0;left=0;bottom=0;right=0;editable=1;overflow=hidden;whiteSpace=wrap;html=1;" parent="LjX3yTBbRf_IUqUX3jE2-19" vertex="1">
          <mxGeometry width="30" height="30" as="geometry">
            <mxRectangle width="30" height="30" as="alternateBounds" />
          </mxGeometry>
        </mxCell>
        <mxCell id="LjX3yTBbRf_IUqUX3jE2-21" value="Titel" style="shape=partialRectangle;connectable=0;fillColor=none;top=0;left=0;bottom=0;right=0;align=left;spacingLeft=6;overflow=hidden;whiteSpace=wrap;html=1;" parent="LjX3yTBbRf_IUqUX3jE2-19" vertex="1">
          <mxGeometry x="30" width="150" height="30" as="geometry">
            <mxRectangle width="150" height="30" as="alternateBounds" />
          </mxGeometry>
        </mxCell>
        <mxCell id="LjX3yTBbRf_IUqUX3jE2-28" value="Exemplar" style="shape=table;startSize=30;container=1;collapsible=1;childLayout=tableLayout;fixedRows=1;rowLines=0;fontStyle=1;align=center;resizeLast=1;html=1;" parent="1" vertex="1">
          <mxGeometry x="310" y="360" width="180" height="90" as="geometry" />
        </mxCell>
        <mxCell id="LjX3yTBbRf_IUqUX3jE2-29" value="" style="shape=tableRow;horizontal=0;startSize=0;swimlaneHead=0;swimlaneBody=0;fillColor=none;collapsible=0;dropTarget=0;points=[[0,0.5],[1,0.5]];portConstraint=eastwest;top=0;left=0;right=0;bottom=1;" parent="LjX3yTBbRf_IUqUX3jE2-28" vertex="1">
          <mxGeometry y="30" width="180" height="30" as="geometry" />
        </mxCell>
        <mxCell id="LjX3yTBbRf_IUqUX3jE2-30" value="PK" style="shape=partialRectangle;connectable=0;fillColor=none;top=0;left=0;bottom=0;right=0;fontStyle=1;overflow=hidden;whiteSpace=wrap;html=1;" parent="LjX3yTBbRf_IUqUX3jE2-29" vertex="1">
          <mxGeometry width="30" height="30" as="geometry">
            <mxRectangle width="30" height="30" as="alternateBounds" />
          </mxGeometry>
        </mxCell>
        <mxCell id="LjX3yTBbRf_IUqUX3jE2-31" value="ExemplarID" style="shape=partialRectangle;connectable=0;fillColor=none;top=0;left=0;bottom=0;right=0;align=left;spacingLeft=6;fontStyle=5;overflow=hidden;whiteSpace=wrap;html=1;" parent="LjX3yTBbRf_IUqUX3jE2-29" vertex="1">
          <mxGeometry x="30" width="150" height="30" as="geometry">
            <mxRectangle width="150" height="30" as="alternateBounds" />
          </mxGeometry>
        </mxCell>
        <mxCell id="LjX3yTBbRf_IUqUX3jE2-38" value="" style="shape=tableRow;horizontal=0;startSize=0;swimlaneHead=0;swimlaneBody=0;fillColor=none;collapsible=0;dropTarget=0;points=[[0,0.5],[1,0.5]];portConstraint=eastwest;top=0;left=0;right=0;bottom=0;" parent="LjX3yTBbRf_IUqUX3jE2-28" vertex="1">
          <mxGeometry y="60" width="180" height="30" as="geometry" />
        </mxCell>
        <mxCell id="LjX3yTBbRf_IUqUX3jE2-39" value="FK" style="shape=partialRectangle;connectable=0;fillColor=none;top=0;left=0;bottom=0;right=0;editable=1;overflow=hidden;whiteSpace=wrap;html=1;" parent="LjX3yTBbRf_IUqUX3jE2-38" vertex="1">
          <mxGeometry width="30" height="30" as="geometry">
            <mxRectangle width="30" height="30" as="alternateBounds" />
          </mxGeometry>
        </mxCell>
        <mxCell id="LjX3yTBbRf_IUqUX3jE2-40" value="ISBN" style="shape=partialRectangle;connectable=0;fillColor=none;top=0;left=0;bottom=0;right=0;align=left;spacingLeft=6;overflow=hidden;whiteSpace=wrap;html=1;" parent="LjX3yTBbRf_IUqUX3jE2-38" vertex="1">
          <mxGeometry x="30" width="150" height="30" as="geometry">
            <mxRectangle width="150" height="30" as="alternateBounds" />
          </mxGeometry>
        </mxCell>
        <mxCell id="LjX3yTBbRf_IUqUX3jE2-41" value="&lt;u&gt;ExemplarID&lt;/u&gt;" style="ellipse;whiteSpace=wrap;html=1;align=center;fontSize=16;" parent="1" vertex="1">
          <mxGeometry x="640" width="100" height="40" as="geometry" />
        </mxCell>
        <mxCell id="LjX3yTBbRf_IUqUX3jE2-42" value="" style="endArrow=none;html=1;rounded=0;" parent="1" source="LjX3yTBbRf_IUqUX3jE2-41" target="u7shPoIlP6sAaxsOA2vG-3" edge="1">
          <mxGeometry relative="1" as="geometry">
            <mxPoint x="340" y="240" as="sourcePoint" />
            <mxPoint x="500" y="240" as="targetPoint" />
          </mxGeometry>
        </mxCell>
        <mxCell id="LjX3yTBbRf_IUqUX3jE2-60" value="Leser" style="shape=table;startSize=30;container=1;collapsible=1;childLayout=tableLayout;fixedRows=1;rowLines=0;fontStyle=1;align=center;resizeLast=1;html=1;" parent="1" vertex="1">
          <mxGeometry x="520" y="360" width="180" height="240" as="geometry" />
        </mxCell>
        <mxCell id="LjX3yTBbRf_IUqUX3jE2-61" value="" style="shape=tableRow;horizontal=0;startSize=0;swimlaneHead=0;swimlaneBody=0;fillColor=none;collapsible=0;dropTarget=0;points=[[0,0.5],[1,0.5]];portConstraint=eastwest;top=0;left=0;right=0;bottom=1;" parent="LjX3yTBbRf_IUqUX3jE2-60" vertex="1">
          <mxGeometry y="30" width="180" height="30" as="geometry" />
        </mxCell>
        <mxCell id="LjX3yTBbRf_IUqUX3jE2-62" value="PK" style="shape=partialRectangle;connectable=0;fillColor=none;top=0;left=0;bottom=0;right=0;fontStyle=1;overflow=hidden;whiteSpace=wrap;html=1;" parent="LjX3yTBbRf_IUqUX3jE2-61" vertex="1">
          <mxGeometry width="30" height="30" as="geometry">
            <mxRectangle width="30" height="30" as="alternateBounds" />
          </mxGeometry>
        </mxCell>
        <mxCell id="LjX3yTBbRf_IUqUX3jE2-63" value="LeserID" style="shape=partialRectangle;connectable=0;fillColor=none;top=0;left=0;bottom=0;right=0;align=left;spacingLeft=6;fontStyle=5;overflow=hidden;whiteSpace=wrap;html=1;" parent="LjX3yTBbRf_IUqUX3jE2-61" vertex="1">
          <mxGeometry x="30" width="150" height="30" as="geometry">
            <mxRectangle width="150" height="30" as="alternateBounds" />
          </mxGeometry>
        </mxCell>
        <mxCell id="LjX3yTBbRf_IUqUX3jE2-64" value="" style="shape=tableRow;horizontal=0;startSize=0;swimlaneHead=0;swimlaneBody=0;fillColor=none;collapsible=0;dropTarget=0;points=[[0,0.5],[1,0.5]];portConstraint=eastwest;top=0;left=0;right=0;bottom=0;" parent="LjX3yTBbRf_IUqUX3jE2-60" vertex="1">
          <mxGeometry y="60" width="180" height="30" as="geometry" />
        </mxCell>
        <mxCell id="LjX3yTBbRf_IUqUX3jE2-65" value="" style="shape=partialRectangle;connectable=0;fillColor=none;top=0;left=0;bottom=0;right=0;editable=1;overflow=hidden;whiteSpace=wrap;html=1;" parent="LjX3yTBbRf_IUqUX3jE2-64" vertex="1">
          <mxGeometry width="30" height="30" as="geometry">
            <mxRectangle width="30" height="30" as="alternateBounds" />
          </mxGeometry>
        </mxCell>
        <mxCell id="LjX3yTBbRf_IUqUX3jE2-66" value="Vorname" style="shape=partialRectangle;connectable=0;fillColor=none;top=0;left=0;bottom=0;right=0;align=left;spacingLeft=6;overflow=hidden;whiteSpace=wrap;html=1;" parent="LjX3yTBbRf_IUqUX3jE2-64" vertex="1">
          <mxGeometry x="30" width="150" height="30" as="geometry">
            <mxRectangle width="150" height="30" as="alternateBounds" />
          </mxGeometry>
        </mxCell>
        <mxCell id="LjX3yTBbRf_IUqUX3jE2-67" value="" style="shape=tableRow;horizontal=0;startSize=0;swimlaneHead=0;swimlaneBody=0;fillColor=none;collapsible=0;dropTarget=0;points=[[0,0.5],[1,0.5]];portConstraint=eastwest;top=0;left=0;right=0;bottom=0;" parent="LjX3yTBbRf_IUqUX3jE2-60" vertex="1">
          <mxGeometry y="90" width="180" height="30" as="geometry" />
        </mxCell>
        <mxCell id="LjX3yTBbRf_IUqUX3jE2-68" value="" style="shape=partialRectangle;connectable=0;fillColor=none;top=0;left=0;bottom=0;right=0;editable=1;overflow=hidden;whiteSpace=wrap;html=1;" parent="LjX3yTBbRf_IUqUX3jE2-67" vertex="1">
          <mxGeometry width="30" height="30" as="geometry">
            <mxRectangle width="30" height="30" as="alternateBounds" />
          </mxGeometry>
        </mxCell>
        <mxCell id="LjX3yTBbRf_IUqUX3jE2-69" value="Nachname" style="shape=partialRectangle;connectable=0;fillColor=none;top=0;left=0;bottom=0;right=0;align=left;spacingLeft=6;overflow=hidden;whiteSpace=wrap;html=1;" parent="LjX3yTBbRf_IUqUX3jE2-67" vertex="1">
          <mxGeometry x="30" width="150" height="30" as="geometry">
            <mxRectangle width="150" height="30" as="alternateBounds" />
          </mxGeometry>
        </mxCell>
        <mxCell id="LjX3yTBbRf_IUqUX3jE2-70" value="" style="shape=tableRow;horizontal=0;startSize=0;swimlaneHead=0;swimlaneBody=0;fillColor=none;collapsible=0;dropTarget=0;points=[[0,0.5],[1,0.5]];portConstraint=eastwest;top=0;left=0;right=0;bottom=0;" parent="LjX3yTBbRf_IUqUX3jE2-60" vertex="1">
          <mxGeometry y="120" width="180" height="30" as="geometry" />
        </mxCell>
        <mxCell id="LjX3yTBbRf_IUqUX3jE2-71" value="" style="shape=partialRectangle;connectable=0;fillColor=none;top=0;left=0;bottom=0;right=0;editable=1;overflow=hidden;whiteSpace=wrap;html=1;" parent="LjX3yTBbRf_IUqUX3jE2-70" vertex="1">
          <mxGeometry width="30" height="30" as="geometry">
            <mxRectangle width="30" height="30" as="alternateBounds" />
          </mxGeometry>
        </mxCell>
        <mxCell id="LjX3yTBbRf_IUqUX3jE2-72" value="Plz" style="shape=partialRectangle;connectable=0;fillColor=none;top=0;left=0;bottom=0;right=0;align=left;spacingLeft=6;overflow=hidden;whiteSpace=wrap;html=1;" parent="LjX3yTBbRf_IUqUX3jE2-70" vertex="1">
          <mxGeometry x="30" width="150" height="30" as="geometry">
            <mxRectangle width="150" height="30" as="alternateBounds" />
          </mxGeometry>
        </mxCell>
        <mxCell id="LjX3yTBbRf_IUqUX3jE2-73" value="" style="shape=tableRow;horizontal=0;startSize=0;swimlaneHead=0;swimlaneBody=0;fillColor=none;collapsible=0;dropTarget=0;points=[[0,0.5],[1,0.5]];portConstraint=eastwest;top=0;left=0;right=0;bottom=0;" parent="LjX3yTBbRf_IUqUX3jE2-60" vertex="1">
          <mxGeometry y="150" width="180" height="30" as="geometry" />
        </mxCell>
        <mxCell id="LjX3yTBbRf_IUqUX3jE2-74" value="" style="shape=partialRectangle;connectable=0;fillColor=none;top=0;left=0;bottom=0;right=0;editable=1;overflow=hidden;whiteSpace=wrap;html=1;" parent="LjX3yTBbRf_IUqUX3jE2-73" vertex="1">
          <mxGeometry width="30" height="30" as="geometry">
            <mxRectangle width="30" height="30" as="alternateBounds" />
          </mxGeometry>
        </mxCell>
        <mxCell id="LjX3yTBbRf_IUqUX3jE2-75" value="Ort" style="shape=partialRectangle;connectable=0;fillColor=none;top=0;left=0;bottom=0;right=0;align=left;spacingLeft=6;overflow=hidden;whiteSpace=wrap;html=1;" parent="LjX3yTBbRf_IUqUX3jE2-73" vertex="1">
          <mxGeometry x="30" width="150" height="30" as="geometry">
            <mxRectangle width="150" height="30" as="alternateBounds" />
          </mxGeometry>
        </mxCell>
        <mxCell id="LjX3yTBbRf_IUqUX3jE2-92" value="" style="shape=tableRow;horizontal=0;startSize=0;swimlaneHead=0;swimlaneBody=0;fillColor=none;collapsible=0;dropTarget=0;points=[[0,0.5],[1,0.5]];portConstraint=eastwest;top=0;left=0;right=0;bottom=0;" parent="LjX3yTBbRf_IUqUX3jE2-60" vertex="1">
          <mxGeometry y="180" width="180" height="30" as="geometry" />
        </mxCell>
        <mxCell id="LjX3yTBbRf_IUqUX3jE2-93" value="" style="shape=partialRectangle;connectable=0;fillColor=none;top=0;left=0;bottom=0;right=0;editable=1;overflow=hidden;whiteSpace=wrap;html=1;" parent="LjX3yTBbRf_IUqUX3jE2-92" vertex="1">
          <mxGeometry width="30" height="30" as="geometry">
            <mxRectangle width="30" height="30" as="alternateBounds" />
          </mxGeometry>
        </mxCell>
        <mxCell id="LjX3yTBbRf_IUqUX3jE2-94" value="Hausnummer" style="shape=partialRectangle;connectable=0;fillColor=none;top=0;left=0;bottom=0;right=0;align=left;spacingLeft=6;overflow=hidden;whiteSpace=wrap;html=1;" parent="LjX3yTBbRf_IUqUX3jE2-92" vertex="1">
          <mxGeometry x="30" width="150" height="30" as="geometry">
            <mxRectangle width="150" height="30" as="alternateBounds" />
          </mxGeometry>
        </mxCell>
        <mxCell id="IKcBE81PYF-8rSLZcA5e-1" value="" style="shape=tableRow;horizontal=0;startSize=0;swimlaneHead=0;swimlaneBody=0;fillColor=none;collapsible=0;dropTarget=0;points=[[0,0.5],[1,0.5]];portConstraint=eastwest;top=0;left=0;right=0;bottom=0;" vertex="1" parent="LjX3yTBbRf_IUqUX3jE2-60">
          <mxGeometry y="210" width="180" height="30" as="geometry" />
        </mxCell>
        <mxCell id="IKcBE81PYF-8rSLZcA5e-2" value="" style="shape=partialRectangle;connectable=0;fillColor=none;top=0;left=0;bottom=0;right=0;editable=1;overflow=hidden;whiteSpace=wrap;html=1;" vertex="1" parent="IKcBE81PYF-8rSLZcA5e-1">
          <mxGeometry width="30" height="30" as="geometry">
            <mxRectangle width="30" height="30" as="alternateBounds" />
          </mxGeometry>
        </mxCell>
        <mxCell id="IKcBE81PYF-8rSLZcA5e-3" value="StraÃŸe" style="shape=partialRectangle;connectable=0;fillColor=none;top=0;left=0;bottom=0;right=0;align=left;spacingLeft=6;overflow=hidden;whiteSpace=wrap;html=1;" vertex="1" parent="IKcBE81PYF-8rSLZcA5e-1">
          <mxGeometry x="30" width="150" height="30" as="geometry">
            <mxRectangle width="150" height="30" as="alternateBounds" />
          </mxGeometry>
        </mxCell>
        <mxCell id="IKcBE81PYF-8rSLZcA5e-4" value="Autor_Buch" style="shape=table;startSize=30;container=1;collapsible=1;childLayout=tableLayout;fixedRows=1;rowLines=0;fontStyle=1;align=center;resizeLast=1;html=1;whiteSpace=wrap;" vertex="1" parent="1">
          <mxGeometry x="60" y="460" width="180" height="90" as="geometry" />
        </mxCell>
        <mxCell id="IKcBE81PYF-8rSLZcA5e-5" value="" style="shape=tableRow;horizontal=0;startSize=0;swimlaneHead=0;swimlaneBody=0;fillColor=none;collapsible=0;dropTarget=0;points=[[0,0.5],[1,0.5]];portConstraint=eastwest;top=0;left=0;right=0;bottom=0;html=1;" vertex="1" parent="IKcBE81PYF-8rSLZcA5e-4">
          <mxGeometry y="30" width="180" height="30" as="geometry" />
        </mxCell>
        <mxCell id="IKcBE81PYF-8rSLZcA5e-6" value="PK,FK1" style="shape=partialRectangle;connectable=0;fillColor=none;top=0;left=0;bottom=0;right=0;fontStyle=1;overflow=hidden;html=1;whiteSpace=wrap;" vertex="1" parent="IKcBE81PYF-8rSLZcA5e-5">
          <mxGeometry width="60" height="30" as="geometry">
            <mxRectangle width="60" height="30" as="alternateBounds" />
          </mxGeometry>
        </mxCell>
        <mxCell id="IKcBE81PYF-8rSLZcA5e-7" value="AutorID" style="shape=partialRectangle;connectable=0;fillColor=none;top=0;left=0;bottom=0;right=0;align=left;spacingLeft=6;fontStyle=5;overflow=hidden;html=1;whiteSpace=wrap;" vertex="1" parent="IKcBE81PYF-8rSLZcA5e-5">
          <mxGeometry x="60" width="120" height="30" as="geometry">
            <mxRectangle width="120" height="30" as="alternateBounds" />
          </mxGeometry>
        </mxCell>
        <mxCell id="IKcBE81PYF-8rSLZcA5e-8" value="" style="shape=tableRow;horizontal=0;startSize=0;swimlaneHead=0;swimlaneBody=0;fillColor=none;collapsible=0;dropTarget=0;points=[[0,0.5],[1,0.5]];portConstraint=eastwest;top=0;left=0;right=0;bottom=1;html=1;" vertex="1" parent="IKcBE81PYF-8rSLZcA5e-4">
          <mxGeometry y="60" width="180" height="30" as="geometry" />
        </mxCell>
        <mxCell id="IKcBE81PYF-8rSLZcA5e-9" value="PK,FK2" style="shape=partialRectangle;connectable=0;fillColor=none;top=0;left=0;bottom=0;right=0;fontStyle=1;overflow=hidden;html=1;whiteSpace=wrap;" vertex="1" parent="IKcBE81PYF-8rSLZcA5e-8">
          <mxGeometry width="60" height="30" as="geometry">
            <mxRectangle width="60" height="30" as="alternateBounds" />
          </mxGeometry>
        </mxCell>
        <mxCell id="IKcBE81PYF-8rSLZcA5e-10" value="ISBN" style="shape=partialRectangle;connectable=0;fillColor=none;top=0;left=0;bottom=0;right=0;align=left;spacingLeft=6;fontStyle=5;overflow=hidden;html=1;whiteSpace=wrap;" vertex="1" parent="IKcBE81PYF-8rSLZcA5e-8">
          <mxGeometry x="60" width="120" height="30" as="geometry">
            <mxRectangle width="120" height="30" as="alternateBounds" />
          </mxGeometry>
        </mxCell>
        <mxCell id="IKcBE81PYF-8rSLZcA5e-17" value="Leser_Buch" style="shape=table;startSize=30;container=1;collapsible=1;childLayout=tableLayout;fixedRows=1;rowLines=0;fontStyle=1;align=center;resizeLast=1;html=1;whiteSpace=wrap;" vertex="1" parent="1">
          <mxGeometry x="310" y="460" width="180" height="90" as="geometry" />
        </mxCell>
        <mxCell id="IKcBE81PYF-8rSLZcA5e-18" value="" style="shape=tableRow;horizontal=0;startSize=0;swimlaneHead=0;swimlaneBody=0;fillColor=none;collapsible=0;dropTarget=0;points=[[0,0.5],[1,0.5]];portConstraint=eastwest;top=0;left=0;right=0;bottom=0;html=1;" vertex="1" parent="IKcBE81PYF-8rSLZcA5e-17">
          <mxGeometry y="30" width="180" height="30" as="geometry" />
        </mxCell>
        <mxCell id="IKcBE81PYF-8rSLZcA5e-19" value="PK,FK1" style="shape=partialRectangle;connectable=0;fillColor=none;top=0;left=0;bottom=0;right=0;fontStyle=1;overflow=hidden;html=1;whiteSpace=wrap;" vertex="1" parent="IKcBE81PYF-8rSLZcA5e-18">
          <mxGeometry width="60" height="30" as="geometry">
            <mxRectangle width="60" height="30" as="alternateBounds" />
          </mxGeometry>
        </mxCell>
        <mxCell id="IKcBE81PYF-8rSLZcA5e-20" value="ISBN" style="shape=partialRectangle;connectable=0;fillColor=none;top=0;left=0;bottom=0;right=0;align=left;spacingLeft=6;fontStyle=5;overflow=hidden;html=1;whiteSpace=wrap;" vertex="1" parent="IKcBE81PYF-8rSLZcA5e-18">
          <mxGeometry x="60" width="120" height="30" as="geometry">
            <mxRectangle width="120" height="30" as="alternateBounds" />
          </mxGeometry>
        </mxCell>
        <mxCell id="IKcBE81PYF-8rSLZcA5e-21" value="" style="shape=tableRow;horizontal=0;startSize=0;swimlaneHead=0;swimlaneBody=0;fillColor=none;collapsible=0;dropTarget=0;points=[[0,0.5],[1,0.5]];portConstraint=eastwest;top=0;left=0;right=0;bottom=1;html=1;" vertex="1" parent="IKcBE81PYF-8rSLZcA5e-17">
          <mxGeometry y="60" width="180" height="30" as="geometry" />
        </mxCell>
        <mxCell id="IKcBE81PYF-8rSLZcA5e-22" value="PK,FK2" style="shape=partialRectangle;connectable=0;fillColor=none;top=0;left=0;bottom=0;right=0;fontStyle=1;overflow=hidden;html=1;whiteSpace=wrap;" vertex="1" parent="IKcBE81PYF-8rSLZcA5e-21">
          <mxGeometry width="60" height="30" as="geometry">
            <mxRectangle width="60" height="30" as="alternateBounds" />
          </mxGeometry>
        </mxCell>
        <mxCell id="IKcBE81PYF-8rSLZcA5e-23" value="LeserID" style="shape=partialRectangle;connectable=0;fillColor=none;top=0;left=0;bottom=0;right=0;align=left;spacingLeft=6;fontStyle=5;overflow=hidden;html=1;whiteSpace=wrap;" vertex="1" parent="IKcBE81PYF-8rSLZcA5e-21">
          <mxGeometry x="60" width="120" height="30" as="geometry">
            <mxRectangle width="120" height="30" as="alternateBounds" />
          </mxGeometry>
        </mxCell>
        <mxCell id="IKcBE81PYF-8rSLZcA5e-59" value="Leser_Exemplar" style="shape=table;startSize=30;container=1;collapsible=1;childLayout=tableLayout;fixedRows=1;rowLines=0;fontStyle=1;align=center;resizeLast=1;html=1;" vertex="1" parent="1">
          <mxGeometry x="740" y="370" width="180" height="180" as="geometry" />
        </mxCell>
        <mxCell id="IKcBE81PYF-8rSLZcA5e-60" value="" style="shape=tableRow;horizontal=0;startSize=0;swimlaneHead=0;swimlaneBody=0;fillColor=none;collapsible=0;dropTarget=0;points=[[0,0.5],[1,0.5]];portConstraint=eastwest;top=0;left=0;right=0;bottom=1;" vertex="1" parent="IKcBE81PYF-8rSLZcA5e-59">
          <mxGeometry y="30" width="180" height="30" as="geometry" />
        </mxCell>
        <mxCell id="IKcBE81PYF-8rSLZcA5e-61" value="PK" style="shape=partialRectangle;connectable=0;fillColor=none;top=0;left=0;bottom=0;right=0;fontStyle=1;overflow=hidden;whiteSpace=wrap;html=1;" vertex="1" parent="IKcBE81PYF-8rSLZcA5e-60">
          <mxGeometry width="30" height="30" as="geometry">
            <mxRectangle width="30" height="30" as="alternateBounds" />
          </mxGeometry>
        </mxCell>
        <mxCell id="IKcBE81PYF-8rSLZcA5e-62" value="Leser_ExemplarID" style="shape=partialRectangle;connectable=0;fillColor=none;top=0;left=0;bottom=0;right=0;align=left;spacingLeft=6;fontStyle=5;overflow=hidden;whiteSpace=wrap;html=1;" vertex="1" parent="IKcBE81PYF-8rSLZcA5e-60">
          <mxGeometry x="30" width="150" height="30" as="geometry">
            <mxRectangle width="150" height="30" as="alternateBounds" />
          </mxGeometry>
        </mxCell>
        <mxCell id="IKcBE81PYF-8rSLZcA5e-63" value="" style="shape=tableRow;horizontal=0;startSize=0;swimlaneHead=0;swimlaneBody=0;fillColor=none;collapsible=0;dropTarget=0;points=[[0,0.5],[1,0.5]];portConstraint=eastwest;top=0;left=0;right=0;bottom=0;" vertex="1" parent="IKcBE81PYF-8rSLZcA5e-59">
          <mxGeometry y="60" width="180" height="30" as="geometry" />
        </mxCell>
        <mxCell id="IKcBE81PYF-8rSLZcA5e-64" value="FK" style="shape=partialRectangle;connectable=0;fillColor=none;top=0;left=0;bottom=0;right=0;editable=1;overflow=hidden;whiteSpace=wrap;html=1;" vertex="1" parent="IKcBE81PYF-8rSLZcA5e-63">
          <mxGeometry width="30" height="30" as="geometry">
            <mxRectangle width="30" height="30" as="alternateBounds" />
          </mxGeometry>
        </mxCell>
        <mxCell id="IKcBE81PYF-8rSLZcA5e-65" value="ExemplarID" style="shape=partialRectangle;connectable=0;fillColor=none;top=0;left=0;bottom=0;right=0;align=left;spacingLeft=6;overflow=hidden;whiteSpace=wrap;html=1;" vertex="1" parent="IKcBE81PYF-8rSLZcA5e-63">
          <mxGeometry x="30" width="150" height="30" as="geometry">
            <mxRectangle width="150" height="30" as="alternateBounds" />
          </mxGeometry>
        </mxCell>
        <mxCell id="IKcBE81PYF-8rSLZcA5e-66" value="" style="shape=tableRow;horizontal=0;startSize=0;swimlaneHead=0;swimlaneBody=0;fillColor=none;collapsible=0;dropTarget=0;points=[[0,0.5],[1,0.5]];portConstraint=eastwest;top=0;left=0;right=0;bottom=0;" vertex="1" parent="IKcBE81PYF-8rSLZcA5e-59">
          <mxGeometry y="90" width="180" height="30" as="geometry" />
        </mxCell>
        <mxCell id="IKcBE81PYF-8rSLZcA5e-67" value="FK" style="shape=partialRectangle;connectable=0;fillColor=none;top=0;left=0;bottom=0;right=0;editable=1;overflow=hidden;whiteSpace=wrap;html=1;" vertex="1" parent="IKcBE81PYF-8rSLZcA5e-66">
          <mxGeometry width="30" height="30" as="geometry">
            <mxRectangle width="30" height="30" as="alternateBounds" />
          </mxGeometry>
        </mxCell>
        <mxCell id="IKcBE81PYF-8rSLZcA5e-68" value="LeserID" style="shape=partialRectangle;connectable=0;fillColor=none;top=0;left=0;bottom=0;right=0;align=left;spacingLeft=6;overflow=hidden;whiteSpace=wrap;html=1;" vertex="1" parent="IKcBE81PYF-8rSLZcA5e-66">
          <mxGeometry x="30" width="150" height="30" as="geometry">
            <mxRectangle width="150" height="30" as="alternateBounds" />
          </mxGeometry>
        </mxCell>
        <mxCell id="IKcBE81PYF-8rSLZcA5e-69" value="" style="shape=tableRow;horizontal=0;startSize=0;swimlaneHead=0;swimlaneBody=0;fillColor=none;collapsible=0;dropTarget=0;points=[[0,0.5],[1,0.5]];portConstraint=eastwest;top=0;left=0;right=0;bottom=0;" vertex="1" parent="IKcBE81PYF-8rSLZcA5e-59">
          <mxGeometry y="120" width="180" height="30" as="geometry" />
        </mxCell>
        <mxCell id="IKcBE81PYF-8rSLZcA5e-70" value="" style="shape=partialRectangle;connectable=0;fillColor=none;top=0;left=0;bottom=0;right=0;editable=1;overflow=hidden;whiteSpace=wrap;html=1;" vertex="1" parent="IKcBE81PYF-8rSLZcA5e-69">
          <mxGeometry width="30" height="30" as="geometry">
            <mxRectangle width="30" height="30" as="alternateBounds" />
          </mxGeometry>
        </mxCell>
        <mxCell id="IKcBE81PYF-8rSLZcA5e-71" value="Ausleihdatum" style="shape=partialRectangle;connectable=0;fillColor=none;top=0;left=0;bottom=0;right=0;align=left;spacingLeft=6;overflow=hidden;whiteSpace=wrap;html=1;" vertex="1" parent="IKcBE81PYF-8rSLZcA5e-69">
          <mxGeometry x="30" width="150" height="30" as="geometry">
            <mxRectangle width="150" height="30" as="alternateBounds" />
          </mxGeometry>
        </mxCell>
        <mxCell id="IKcBE81PYF-8rSLZcA5e-72" value="" style="shape=tableRow;horizontal=0;startSize=0;swimlaneHead=0;swimlaneBody=0;fillColor=none;collapsible=0;dropTarget=0;points=[[0,0.5],[1,0.5]];portConstraint=eastwest;top=0;left=0;right=0;bottom=0;" vertex="1" parent="IKcBE81PYF-8rSLZcA5e-59">
          <mxGeometry y="150" width="180" height="30" as="geometry" />
        </mxCell>
        <mxCell id="IKcBE81PYF-8rSLZcA5e-73" value="" style="shape=partialRectangle;connectable=0;fillColor=none;top=0;left=0;bottom=0;right=0;editable=1;overflow=hidden;whiteSpace=wrap;html=1;" vertex="1" parent="IKcBE81PYF-8rSLZcA5e-72">
          <mxGeometry width="30" height="30" as="geometry">
            <mxRectangle width="30" height="30" as="alternateBounds" />
          </mxGeometry>
        </mxCell>
        <mxCell id="IKcBE81PYF-8rSLZcA5e-74" value="RÃ¼ckgabedatum" style="shape=partialRectangle;connectable=0;fillColor=none;top=0;left=0;bottom=0;right=0;align=left;spacingLeft=6;overflow=hidden;whiteSpace=wrap;html=1;" vertex="1" parent="IKcBE81PYF-8rSLZcA5e-72">
          <mxGeometry x="30" width="150" height="30" as="geometry">
            <mxRectangle width="150" height="30" as="alternateBounds" />
          </mxGeometry>
        </mxCell>
      </root>
    </mxGraphModel>
  </diagram>
</mxfile>
